<svg xmlns="http://www.w3.org/2000/svg" viewBox="0 0 800 480" width="800" height="480">
    <defs>
      <linearGradient id="bg" x1="0" y1="0" x2="1" y2="1">
        <stop offset="0%" stop-color="#101722"/>
        <stop offset="100%" stop-color="#080b10"/>
      </linearGradient>
      <linearGradient id="g1" x1="0" y1="0" x2="1" y2="1">
        <stop offset="0%" stop-color="#79ffb0"/>
        <stop offset="100%" stop-color="#7fb3ff"/>
      </linearGradient>
      <filter id="glow" x="-30%" y="-30%" width="160%" height="160%">
        <feGaussianBlur stdDeviation="12" result="blur"/>
        <feMerge><feMergeNode in="blur"/><feMergeNode in="SourceGraphic"/></feMerge>
      </filter>
    </defs>
    <rect width="800" height="480" fill="url(#bg)"/>
    <g opacity=".16">
      <path d="M40 0V480" stroke="#9fb3c8" stroke-opacity=".22"/><path d="M80 0V480" stroke="#9fb3c8" stroke-opacity=".22"/><path d="M120 0V480" stroke="#9fb3c8" stroke-opacity=".22"/><path d="M160 0V480" stroke="#9fb3c8" stroke-opacity=".22"/><path d="M200 0V480" stroke="#9fb3c8" stroke-opacity=".22"/><path d="M240 0V480" stroke="#9fb3c8" stroke-opacity=".22"/><path d="M280 0V480" stroke="#9fb3c8" stroke-opacity=".22"/><path d="M320 0V480" stroke="#9fb3c8" stroke-opacity=".22"/><path d="M360 0V480" stroke="#9fb3c8" stroke-opacity=".22"/><path d="M400 0V480" stroke="#9fb3c8" stroke-opacity=".22"/><path d="M440 0V480" stroke="#9fb3c8" stroke-opacity=".22"/><path d="M480 0V480" stroke="#9fb3c8" stroke-opacity=".22"/><path d="M520 0V480" stroke="#9fb3c8" stroke-opacity=".22"/><path d="M560 0V480" stroke="#9fb3c8" stroke-opacity=".22"/><path d="M600 0V480" stroke="#9fb3c8" stroke-opacity=".22"/><path d="M640 0V480" stroke="#9fb3c8" stroke-opacity=".22"/><path d="M680 0V480" stroke="#9fb3c8" stroke-opacity=".22"/><path d="M720 0V480" stroke="#9fb3c8" stroke-opacity=".22"/><path d="M760 0V480" stroke="#9fb3c8" stroke-opacity=".22"/>
      <path d="M0 40H800" stroke="#9fb3c8" stroke-opacity=".16"/><path d="M0 80H800" stroke="#9fb3c8" stroke-opacity=".16"/><path d="M0 120H800" stroke="#9fb3c8" stroke-opacity=".16"/><path d="M0 160H800" stroke="#9fb3c8" stroke-opacity=".16"/><path d="M0 200H800" stroke="#9fb3c8" stroke-opacity=".16"/><path d="M0 240H800" stroke="#9fb3c8" stroke-opacity=".16"/><path d="M0 280H800" stroke="#9fb3c8" stroke-opacity=".16"/><path d="M0 320H800" stroke="#9fb3c8" stroke-opacity=".16"/><path d="M0 360H800" stroke="#9fb3c8" stroke-opacity=".16"/><path d="M0 400H800" stroke="#9fb3c8" stroke-opacity=".16"/><path d="M0 440H800" stroke="#9fb3c8" stroke-opacity=".16"/>
    </g>
    <circle cx="635" cy="112" r="112" fill="#79ffb0" opacity=".10" filter="url(#glow)"/>
    <circle cx="178" cy="354" r="92" fill="#7fb3ff" opacity=".08" filter="url(#glow)"/>
    <rect x="35" y="32" width="730" height="416" rx="24" fill="rgba(255,255,255,.02)" stroke="rgba(255,255,255,.07)"/>
    <rect x="59" y="356" width="160" height="58" rx="14" fill="rgba(255,255,255,.03)" stroke="rgba(255,255,255,.08)"/>
    <text x="79" y="382" fill="#d7e0ea" font-family="Arial, Helvetica, sans-serif" font-size="14" font-weight="700">TRACE VISUAL PACK</text>
    <text x="79" y="402" fill="#93a1b2" font-family="Arial, Helvetica, sans-serif" font-size="12">Host / Build activity</text>
    <rect x="579" y="357" width="148" height="26" rx="13" fill="rgba(255,255,255,.04)" stroke="#79ffb0" stroke-opacity=".45"/>
    <text x="653" y="374" fill="#79ffb0" font-family="Arial, Helvetica, sans-serif" font-size="11" text-anchor="middle" font-weight="700">EXECUTION CHAIN</text>
    
        <rect x="305" y="98" width="190" height="48" rx="12" fill="rgba(255,255,255,.03)" stroke="#79ffb0"/>
        <rect x="305" y="162" width="190" height="48" rx="12" fill="rgba(255,255,255,.03)" stroke="#79ffb0"/>
        <rect x="305" y="226" width="190" height="48" rx="12" fill="rgba(255,255,255,.03)" stroke="#79ffb0"/>
        <circle cx="337" cy="122" r="6" fill="#7fb3ff"/><circle cx="337" cy="186" r="6" fill="#7fb3ff"/><circle cx="337" cy="250" r="6" fill="#7fb3ff"/>
        <path d="M548 149l-52 38M548 223l-52-36" stroke="#7fb3ff" stroke-width="7" stroke-linecap="round"/>
        <circle cx="570" cy="187" r="18" fill="rgba(255,255,255,.03)" stroke="#7fb3ff" stroke-width="6"/>
        <path d="M570 173v15M570 198v2" stroke="#7fb3ff" stroke-width="5" stroke-linecap="round"/>
        
    </svg>